<svg width="1892" height="557" viewBox="0 0 1892 557" fill="none" xmlns="http://www.w3.org/2000/svg">
<rect x="0.477051" y="0.916016" width="524.857" height="555.137" rx="100.934" fill="url(#paint0_linear_237_175)"/>
<path d="M287.108 165.761H386.963C389.765 165.761 392.037 168.033 392.037 170.835V223.216C392.037 224.958 391.143 226.578 389.67 227.508L260.539 308.959C250.859 315.065 255.185 330.032 266.63 330.032H386.963C389.765 330.032 392.037 332.303 392.037 335.106V460.687C392.037 463.49 389.765 465.761 386.963 465.761H316.323C313.652 465.761 311.487 463.596 311.487 460.925C311.487 420.861 279.009 388.383 238.945 388.383H139.605C136.803 388.383 134.531 386.111 134.531 383.309V332.807C134.531 331.078 135.412 329.467 136.868 328.535L267.72 244.708C276.255 239.24 272.383 226.015 262.246 226.015H139.605C136.803 226.015 134.531 223.743 134.531 220.941V95.3592C134.531 92.5569 136.803 90.2852 139.605 90.2852H211.632C214.238 90.2852 216.35 92.3971 216.35 95.0024C216.35 134.081 248.029 165.761 287.108 165.761Z" fill="white"/>
<mask id="path-3-outside-1_237_175" maskUnits="userSpaceOnUse" x="645.664" y="173.502" width="1246" height="207" fill="black">
<rect fill="white" x="645.664" y="173.502" width="1246" height="207"/>
<path fill-rule="evenodd" clip-rule="evenodd" d="M649.664 197.723H807.838L655.599 349.963L652.637 352.924V357.112V366.628V376.738H662.748H832.842V356.517H677.641L827.502 206.656L830.463 203.695V199.507V187.612V177.502H820.352H649.664V197.723ZM899.155 178.097V275.931C899.155 331.605 944.288 376.738 999.962 376.738C1055.64 376.738 1100.77 331.605 1100.77 275.931V178.097H1080.55V275.931C1080.55 320.437 1044.47 356.517 999.962 356.517C955.456 356.517 919.376 320.437 919.376 275.931V178.097H899.155ZM1448.69 273.254C1448.69 240.215 1478.01 198.318 1529.87 198.318C1550.52 198.318 1570.91 209.053 1586.42 224.602C1602.11 240.326 1611.05 259.17 1611.05 273.254H1631.27C1631.27 251.952 1618.65 228.273 1600.74 210.319C1582.65 192.192 1557.4 178.097 1529.87 178.097C1465.76 178.097 1428.47 230.167 1428.47 273.254V366.628H1448.69V273.254ZM1789.92 178.097C1735.63 178.097 1691.64 222.184 1691.64 276.451C1691.64 330.636 1735.56 374.657 1789.77 374.657C1843.97 374.657 1887.9 330.722 1887.9 276.525V274.444C1887.9 221.233 1844.77 178.097 1791.55 178.097H1789.92ZM1711.86 276.451C1711.86 233.329 1746.82 198.318 1789.92 198.318H1791.55C1833.6 198.318 1867.68 232.4 1867.68 274.444V276.525C1867.68 319.554 1832.8 354.436 1789.77 354.436C1746.75 354.436 1711.86 319.491 1711.86 276.451ZM1272.8 180.178C1218.51 180.178 1174.52 224.265 1174.52 278.533C1174.52 332.718 1218.44 376.738 1272.65 376.738C1319.13 376.738 1358.06 344.421 1368.21 301.031H1347.28C1337.65 333.129 1307.88 356.517 1272.65 356.517C1229.63 356.517 1194.74 321.572 1194.74 278.533C1194.74 235.411 1229.7 200.399 1272.8 200.399H1274.43C1307.53 200.399 1335.69 221.517 1346.18 251.012H1367.37C1356.18 210.183 1318.81 180.178 1274.43 180.178H1272.8Z"/>
</mask>
<path fill-rule="evenodd" clip-rule="evenodd" d="M649.664 197.723H807.838L655.599 349.963L652.637 352.924V357.112V366.628V376.738H662.748H832.842V356.517H677.641L827.502 206.656L830.463 203.695V199.507V187.612V177.502H820.352H649.664V197.723ZM899.155 178.097V275.931C899.155 331.605 944.288 376.738 999.962 376.738C1055.64 376.738 1100.77 331.605 1100.77 275.931V178.097H1080.55V275.931C1080.55 320.437 1044.47 356.517 999.962 356.517C955.456 356.517 919.376 320.437 919.376 275.931V178.097H899.155ZM1448.69 273.254C1448.69 240.215 1478.01 198.318 1529.87 198.318C1550.52 198.318 1570.91 209.053 1586.42 224.602C1602.11 240.326 1611.05 259.17 1611.05 273.254H1631.27C1631.27 251.952 1618.65 228.273 1600.74 210.319C1582.65 192.192 1557.4 178.097 1529.87 178.097C1465.76 178.097 1428.47 230.167 1428.47 273.254V366.628H1448.69V273.254ZM1789.92 178.097C1735.63 178.097 1691.64 222.184 1691.64 276.451C1691.64 330.636 1735.56 374.657 1789.77 374.657C1843.97 374.657 1887.9 330.722 1887.9 276.525V274.444C1887.9 221.233 1844.77 178.097 1791.55 178.097H1789.92ZM1711.86 276.451C1711.86 233.329 1746.82 198.318 1789.92 198.318H1791.55C1833.6 198.318 1867.68 232.4 1867.68 274.444V276.525C1867.68 319.554 1832.8 354.436 1789.77 354.436C1746.75 354.436 1711.86 319.491 1711.86 276.451ZM1272.8 180.178C1218.51 180.178 1174.52 224.265 1174.52 278.533C1174.52 332.718 1218.44 376.738 1272.65 376.738C1319.13 376.738 1358.06 344.421 1368.21 301.031H1347.28C1337.65 333.129 1307.88 356.517 1272.65 356.517C1229.63 356.517 1194.74 321.572 1194.74 278.533C1194.74 235.411 1229.7 200.399 1272.8 200.399H1274.43C1307.53 200.399 1335.69 221.517 1346.18 251.012H1367.37C1356.18 210.183 1318.81 180.178 1274.43 180.178H1272.8Z" fill="#380F7F"/>
<path d="M807.838 197.723L810.329 200.214L816.342 194.2H807.838V197.723ZM649.664 197.723H646.141V201.245H649.664V197.723ZM655.599 349.963L658.089 352.453H658.089L655.599 349.963ZM652.637 352.924L650.147 350.433L649.115 351.465V352.924H652.637ZM652.637 376.738H649.115V380.261H652.637V376.738ZM832.842 376.738V380.261H836.364V376.738H832.842ZM832.842 356.517H836.364V352.995H832.842V356.517ZM677.641 356.517L675.15 354.026L669.137 360.04H677.641V356.517ZM827.502 206.656L829.992 209.147V209.147L827.502 206.656ZM830.463 203.695L832.954 206.186L833.985 205.154V203.695H830.463ZM830.463 177.502H833.985V173.98H830.463V177.502ZM649.664 177.502V173.98H646.141V177.502H649.664ZM899.155 178.097V174.574H895.632V178.097H899.155ZM1100.77 178.097H1104.29V174.574H1100.77V178.097ZM1080.55 178.097V174.574H1077.03V178.097H1080.55ZM919.376 178.097H922.898V174.574H919.376V178.097ZM1586.42 224.602L1583.93 227.09V227.09L1586.42 224.602ZM1611.05 273.254H1607.53V276.777H1611.05V273.254ZM1631.27 273.254V276.777H1634.8V273.254H1631.27ZM1600.74 210.319L1598.25 212.807V212.807L1600.74 210.319ZM1428.47 366.628H1424.95V370.15H1428.47V366.628ZM1448.69 366.628V370.15H1452.21V366.628H1448.69ZM1368.21 301.031L1371.64 301.832L1372.65 297.508H1368.21V301.031ZM1347.28 301.031V297.508H1344.66L1343.91 300.018L1347.28 301.031ZM1346.18 251.012L1342.86 252.192L1343.69 254.534H1346.18V251.012ZM1367.37 251.012V254.534H1371.98L1370.76 250.081L1367.37 251.012ZM807.838 194.2H649.664V201.245H807.838V194.2ZM658.089 352.453L810.329 200.214L805.348 195.232L653.108 347.472L658.089 352.453ZM655.128 355.415L658.089 352.453L653.108 347.472L650.147 350.433L655.128 355.415ZM656.16 357.112V352.924H649.115V357.112H656.16ZM656.16 366.628V357.112H649.115V366.628H656.16ZM656.16 376.738V366.628H649.115V376.738H656.16ZM662.748 373.216H652.637V380.261H662.748V373.216ZM832.842 373.216H662.748V380.261H832.842V373.216ZM829.319 356.517V376.738H836.364V356.517H829.319ZM677.641 360.04H832.842V352.995H677.641V360.04ZM825.011 204.166L675.15 354.026L680.132 359.008L829.992 209.147L825.011 204.166ZM827.972 201.204L825.011 204.166L829.992 209.147L832.954 206.186L827.972 201.204ZM826.94 199.507V203.695H833.985V199.507H826.94ZM826.94 187.612V199.507H833.985V187.612H826.94ZM826.94 177.502V187.612H833.985V177.502H826.94ZM820.352 181.024H830.463V173.98H820.352V181.024ZM649.664 181.024H820.352V173.98H649.664V181.024ZM653.186 197.723V177.502H646.141V197.723H653.186ZM902.677 275.931V178.097H895.632V275.931H902.677ZM999.962 373.216C946.233 373.216 902.677 329.66 902.677 275.931H895.632C895.632 333.55 942.342 380.261 999.962 380.261V373.216ZM1097.25 275.931C1097.25 329.66 1053.69 373.216 999.962 373.216V380.261C1057.58 380.261 1104.29 333.55 1104.29 275.931H1097.25ZM1097.25 178.097V275.931H1104.29V178.097H1097.25ZM1080.55 181.619H1100.77V174.574H1080.55V181.619ZM1084.07 275.931V178.097H1077.03V275.931H1084.07ZM999.962 360.04C1046.41 360.04 1084.07 322.383 1084.07 275.931H1077.03C1077.03 318.492 1042.52 352.995 999.962 352.995V360.04ZM915.853 275.931C915.853 322.383 953.51 360.04 999.962 360.04V352.995C957.401 352.995 922.898 318.492 922.898 275.931H915.853ZM915.853 178.097V275.931H922.898V178.097H915.853ZM899.155 181.619H919.376V174.574H899.155V181.619ZM1529.87 194.795C1475.88 194.795 1445.17 238.457 1445.17 273.254H1452.21C1452.21 241.973 1480.14 201.84 1529.87 201.84V194.795ZM1588.92 222.114C1572.95 206.114 1551.71 194.795 1529.87 194.795V201.84C1549.32 201.84 1568.87 211.992 1583.93 227.09L1588.92 222.114ZM1614.57 273.254C1614.57 257.914 1605 238.228 1588.92 222.114L1583.93 227.09C1599.23 242.423 1607.53 260.425 1607.53 273.254H1614.57ZM1631.27 269.732H1611.05V276.777H1631.27V269.732ZM1598.25 212.807C1615.77 230.374 1627.75 253.211 1627.75 273.254H1634.8C1634.8 250.694 1621.53 226.172 1603.23 207.831L1598.25 212.807ZM1529.87 181.619C1556.2 181.619 1580.6 195.128 1598.25 212.807L1603.23 207.831C1584.7 189.256 1558.6 174.574 1529.87 174.574V181.619ZM1431.99 273.254C1431.99 231.912 1467.9 181.619 1529.87 181.619V174.574C1463.62 174.574 1424.95 228.423 1424.95 273.254H1431.99ZM1431.99 366.628V273.254H1424.95V366.628H1431.99ZM1448.69 363.105H1428.47V370.15H1448.69V363.105ZM1445.17 273.254V366.628H1452.21V273.254H1445.17ZM1695.16 276.451C1695.16 224.125 1737.58 181.619 1789.92 181.619V174.574C1733.68 174.574 1688.12 220.242 1688.12 276.451H1695.16ZM1789.77 371.134C1737.51 371.134 1695.16 328.695 1695.16 276.451H1688.12C1688.12 332.578 1733.61 378.179 1789.77 378.179V371.134ZM1884.38 276.525C1884.38 328.776 1842.02 371.134 1789.77 371.134V378.179C1845.91 378.179 1891.42 332.667 1891.42 276.525H1884.38ZM1884.38 274.444V276.525H1891.42V274.444H1884.38ZM1791.55 181.619C1842.82 181.619 1884.38 223.178 1884.38 274.444H1891.42C1891.42 219.287 1846.71 174.574 1791.55 174.574V181.619ZM1789.92 181.619H1791.55V174.574H1789.92V181.619ZM1789.92 194.795C1744.87 194.795 1708.34 231.388 1708.34 276.451H1715.38C1715.38 235.271 1748.77 201.84 1789.92 201.84V194.795ZM1791.55 194.795H1789.92V201.84H1791.55V194.795ZM1871.2 274.444C1871.2 230.455 1835.54 194.795 1791.55 194.795V201.84C1831.65 201.84 1864.16 234.346 1864.16 274.444H1871.2ZM1871.2 276.525V274.444H1864.16V276.525H1871.2ZM1789.77 357.958C1834.74 357.958 1871.2 321.499 1871.2 276.525H1864.16C1864.16 317.609 1830.85 350.913 1789.77 350.913V357.958ZM1708.34 276.451C1708.34 321.432 1744.8 357.958 1789.77 357.958V350.913C1748.7 350.913 1715.38 317.549 1715.38 276.451H1708.34ZM1178.04 278.533C1178.04 226.207 1220.46 183.701 1272.8 183.701V176.656C1216.56 176.656 1170.99 222.324 1170.99 278.533H1178.04ZM1272.65 373.216C1220.39 373.216 1178.04 330.776 1178.04 278.533H1170.99C1170.99 334.659 1216.49 380.261 1272.65 380.261V373.216ZM1364.78 300.229C1355 342.062 1317.46 373.216 1272.65 373.216V380.261C1320.8 380.261 1361.13 346.781 1371.64 301.832L1364.78 300.229ZM1368.21 297.508H1347.28V304.553H1368.21V297.508ZM1272.65 360.04C1309.48 360.04 1340.59 335.59 1350.66 302.043L1343.91 300.018C1334.71 330.668 1306.28 352.995 1272.65 352.995V360.04ZM1191.22 278.533C1191.22 323.514 1227.68 360.04 1272.65 360.04V352.995C1231.58 352.995 1198.26 319.631 1198.26 278.533H1191.22ZM1272.8 196.877C1227.75 196.877 1191.22 233.469 1191.22 278.533H1198.26C1198.26 237.352 1231.65 203.922 1272.8 203.922V196.877ZM1274.43 196.877H1272.8V203.922H1274.43V196.877ZM1349.5 249.832C1338.52 218.977 1309.06 196.877 1274.43 196.877V203.922C1305.99 203.922 1332.85 224.057 1342.86 252.192L1349.5 249.832ZM1346.18 254.534H1367.37V247.49H1346.18V254.534ZM1274.43 183.701C1317.18 183.701 1353.19 212.604 1363.97 251.943L1370.76 250.081C1359.17 207.761 1320.44 176.656 1274.43 176.656V183.701ZM1272.8 183.701H1274.43V176.656H1272.8V183.701Z" fill="#380F7F" mask="url(#path-3-outside-1_237_175)"/>
<defs>
<linearGradient id="paint0_linear_237_175" x1="525.334" y1="-0.0217144" x2="266.99" y2="577.852" gradientUnits="userSpaceOnUse">
<stop stop-color="#651BE5"/>
<stop offset="1" stop-color="#380F7F"/>
</linearGradient>
</defs>
</svg>
