<?xml version="1.0" encoding="UTF-8"?>
<svg width="32" height="32" viewBox="0 0 32 32" fill="none" xmlns="http://www.w3.org/2000/svg">
  <rect width="32" height="32" rx="8" fill="#2563EB"/>
  <path d="M16.5 7C12.3579 7 9 10.3579 9 14.5C9 18.6421 12.3579 22 16.5 22C20.6421 22 24 18.6421 24 14.5C24 10.3579 20.6421 7 16.5 7ZM16.5 20C13.4624 20 11 17.5376 11 14.5C11 11.4624 13.4624 9 16.5 9C19.5376 9 22 11.4624 22 14.5C22 17.5376 19.5376 20 16.5 20Z" fill="white"/>
  <path d="M16.5 11C14.567 11 13 12.567 13 14.5C13 16.433 14.567 18 16.5 18C18.433 18 20 16.433 20 14.5C20 12.567 18.433 11 16.5 11ZM16.5 16C15.6716 16 15 15.3284 15 14.5C15 13.6716 15.6716 13 16.5 13C17.3284 13 18 13.6716 18 14.5C18 15.3284 17.3284 16 16.5 16Z" fill="white"/>
  <path d="M23 25C23 25.5523 22.5523 26 22 26H11C10.4477 26 10 25.5523 10 25C10 24.4477 10.4477 24 11 24H22C22.5523 24 23 24.4477 23 25Z" fill="white"/>
</svg> 